<?xml version="1.0" standalone="no"?>
<!DOCTYPE svg PUBLIC "-//W3C//DTD SVG 20010904//EN"
 "http://www.w3.org/TR/2001/REC-SVG-20010904/DTD/svg10.dtd">
<svg version="1.0" xmlns="http://www.w3.org/2000/svg"
 width="512.000000pt" height="512.000000pt" viewBox="0 0 512.000000 512.000000"
 preserveAspectRatio="xMidYMid meet">
<metadata>
Created by potrace 1.11, written by Peter Selinger 2001-2013
</metadata>
<g transform="translate(0.000000,512.000000) scale(0.100000,-0.100000)"
fill="#000000" stroke="none">
<path d="M2073 5016 c-112 -57 -203 -100 -203 -97 0 3 -4 2 -8 -4 -12 -16 -69
-45 -76 -38 -3 3 -6 1 -6 -6 0 -7 -4 -10 -9 -7 -5 4 -11 3 -13 -1 -3 -9 -194
-104 -204 -102 -4 0 -10 -3 -13 -8 -3 -4 -82 -46 -176 -93 l-170 -85 -1 -2015
-1 -2016 261 -129 c144 -71 264 -134 267 -138 3 -5 8 -8 10 -7 6 4 101 -41
129 -61 14 -9 27 -17 30 -17 11 0 65 -27 71 -35 3 -5 9 -8 13 -7 3 0 75 -33
158 -75 l151 -75 822 0 822 0 0 223 0 224 -73 33 c-41 18 -74 38 -74 43 0 6
-3 8 -6 4 -4 -3 -34 9 -69 28 -34 19 -65 32 -69 28 -3 -3 -6 -1 -6 5 0 10 -40
28 -49 23 -2 -2 -7 1 -10 6 -11 15 -88 53 -95 46 -3 -3 -6 -2 -6 3 0 5 -47 32
-105 59 -58 28 -103 54 -102 59 2 6 104 60 228 122 123 62 230 117 237 123 6
7 12 10 12 7 0 -3 42 16 93 42 l92 47 1 1860 c1 1880 1 1891 -31 1884 -3 0
-120 56 -258 125 l-253 126 -555 -1 -554 -1 -202 -102z m324 -666 c7 0 13 -4
13 -8 0 -6 41 -27 70 -36 3 -1 21 -10 40 -21 50 -27 203 -101 215 -105 6 -1
22 -11 36 -21 14 -10 28 -16 31 -13 3 2 10 -2 17 -10 14 -17 20 -146 6 -146
-7 0 -7 -3 0 -8 6 -4 10 -34 10 -67 0 -33 -4 -63 -10 -67 -7 -5 -7 -8 0 -8 6
0 10 -20 10 -45 0 -25 -4 -45 -10 -45 -7 0 -7 -3 0 -8 6 -4 10 -34 10 -67 0
-33 -4 -63 -10 -67 -7 -5 -7 -8 0 -8 6 0 10 -85 10 -235 0 -150 -4 -235 -10
-235 -7 0 -7 -3 0 -8 6 -4 10 -25 10 -47 0 -22 -4 -43 -10 -47 -7 -5 -7 -8 0
-8 6 0 10 -28 10 -65 0 -37 -4 -65 -10 -65 -7 0 -7 -3 0 -8 6 -4 10 -25 10
-47 0 -22 -4 -43 -10 -47 -7 -5 -7 -8 0 -8 6 0 10 -28 10 -65 0 -37 -4 -65
-10 -65 -7 0 -7 -3 0 -8 6 -4 10 -38 10 -77 0 -38 -4 -73 -10 -77 -7 -5 -7 -8
0 -8 6 0 10 -20 10 -45 0 -25 -4 -45 -10 -45 -7 0 -7 -3 0 -8 6 -4 10 -34 10
-67 0 -33 -4 -63 -10 -67 -7 -5 -7 -8 0 -8 6 0 10 -20 10 -45 0 -25 -4 -45
-10 -45 -7 0 -7 -3 0 -8 6 -4 10 -34 10 -67 0 -33 -4 -63 -10 -67 -7 -5 -7 -8
0 -8 6 0 10 -84 10 -233 0 -143 -4 -235 -10 -239 -7 -5 -7 -8 0 -8 6 0 10 -20
10 -45 0 -25 -4 -45 -10 -45 -7 0 -7 -3 0 -8 6 -4 10 -34 10 -67 0 -33 -4 -63
-10 -67 -7 -5 -7 -8 0 -8 6 0 10 -20 10 -45 0 -25 -4 -45 -10 -45 -7 0 -7 -3
0 -8 6 -4 10 -34 10 -67 0 -33 -4 -63 -10 -67 -6 -5 -6 -8 2 -8 6 0 9 -8 6
-19 -6 -24 -23 -21 -94 18 -31 17 -59 28 -63 24 -3 -3 -6 -1 -6 5 0 10 -25 23
-44 21 -5 0 -12 3 -15 8 -3 5 -77 44 -163 87 -129 64 -158 82 -159 100 0 11
-2 31 -3 44 -2 12 2 22 8 22 7 0 7 3 1 8 -5 4 -10 25 -10 47 0 22 5 43 10 47
7 5 7 8 0 8 -6 0 -10 28 -10 65 0 37 4 65 10 65 7 0 7 3 0 8 -5 4 -10 25 -10
47 0 22 5 43 10 47 7 5 7 8 0 8 -6 0 -10 28 -10 65 0 37 4 65 10 65 7 0 7 3 0
8 -6 4 -10 95 -10 237 0 142 4 233 10 237 7 5 7 8 0 8 -5 0 -10 20 -10 45 0
25 5 45 10 45 7 0 7 3 0 8 -5 4 -10 34 -10 67 0 33 5 63 10 67 7 5 7 8 0 8 -5
0 -10 20 -10 45 0 25 5 45 10 45 7 0 7 3 0 8 -5 4 -10 34 -10 67 0 33 5 63 10
67 7 5 7 8 0 8 -6 0 -10 85 -10 235 0 150 4 235 10 235 7 0 7 3 0 8 -5 4 -10
25 -10 47 0 22 5 43 10 47 7 5 7 8 0 8 -6 0 -10 28 -10 65 0 37 4 65 10 65 7
0 7 3 0 8 -5 4 -10 25 -10 47 0 22 5 43 10 47 7 5 7 8 0 8 -6 0 -10 28 -10 65
0 37 4 65 10 65 7 0 7 3 0 8 -6 4 -10 95 -10 237 0 142 4 233 10 237 7 5 7 8
0 8 -6 0 -9 31 -7 80 l4 80 46 -25 c26 -14 53 -25 59 -25z"/>
</g>
</svg>
